<mxfile host="65bd71144e">
    <diagram name="Modelo de Entidade-Relacionamento" id="KbXfCUDERzNEMp6zrsGa">
        <mxGraphModel dx="1109" dy="326" grid="1" gridSize="10" guides="1" tooltips="1" connect="1" arrows="1" fold="1" page="1" pageScale="1" pageWidth="827" pageHeight="1169" math="0" shadow="0">
            <root>
                <mxCell id="0"/>
                <mxCell id="1" parent="0"/>
                <mxCell id="m5FnCCsyvvvx2oeaLUDX-4" value="Usuario" style="shape=table;startSize=30;container=1;collapsible=1;childLayout=tableLayout;fixedRows=1;rowLines=0;fontStyle=1;align=center;resizeLast=1;html=1;fillColor=#008a00;fontColor=#ffffff;strokeColor=#005700;" parent="1" vertex="1">
                    <mxGeometry x="840" y="200" width="260" height="150" as="geometry"/>
                </mxCell>
                <mxCell id="m5FnCCsyvvvx2oeaLUDX-5" value="" style="shape=tableRow;horizontal=0;startSize=0;swimlaneHead=0;swimlaneBody=0;fillColor=none;collapsible=0;dropTarget=0;points=[[0,0.5],[1,0.5]];portConstraint=eastwest;top=0;left=0;right=0;bottom=1;" parent="m5FnCCsyvvvx2oeaLUDX-4" vertex="1">
                    <mxGeometry y="30" width="260" height="30" as="geometry"/>
                </mxCell>
                <mxCell id="m5FnCCsyvvvx2oeaLUDX-6" value="PK" style="shape=partialRectangle;connectable=0;fillColor=none;top=0;left=0;bottom=0;right=0;fontStyle=1;overflow=hidden;whiteSpace=wrap;html=1;" parent="m5FnCCsyvvvx2oeaLUDX-5" vertex="1">
                    <mxGeometry width="30" height="30" as="geometry">
                        <mxRectangle width="30" height="30" as="alternateBounds"/>
                    </mxGeometry>
                </mxCell>
                <mxCell id="m5FnCCsyvvvx2oeaLUDX-7" value="ID" style="shape=partialRectangle;connectable=0;fillColor=none;top=0;left=0;bottom=0;right=0;align=left;spacingLeft=6;fontStyle=5;overflow=hidden;whiteSpace=wrap;html=1;" parent="m5FnCCsyvvvx2oeaLUDX-5" vertex="1">
                    <mxGeometry x="30" width="230" height="30" as="geometry">
                        <mxRectangle width="230" height="30" as="alternateBounds"/>
                    </mxGeometry>
                </mxCell>
                <mxCell id="m5FnCCsyvvvx2oeaLUDX-8" value="" style="shape=tableRow;horizontal=0;startSize=0;swimlaneHead=0;swimlaneBody=0;fillColor=none;collapsible=0;dropTarget=0;points=[[0,0.5],[1,0.5]];portConstraint=eastwest;top=0;left=0;right=0;bottom=0;" parent="m5FnCCsyvvvx2oeaLUDX-4" vertex="1">
                    <mxGeometry y="60" width="260" height="30" as="geometry"/>
                </mxCell>
                <mxCell id="m5FnCCsyvvvx2oeaLUDX-9" value="" style="shape=partialRectangle;connectable=0;fillColor=none;top=0;left=0;bottom=0;right=0;editable=1;overflow=hidden;whiteSpace=wrap;html=1;" parent="m5FnCCsyvvvx2oeaLUDX-8" vertex="1">
                    <mxGeometry width="30" height="30" as="geometry">
                        <mxRectangle width="30" height="30" as="alternateBounds"/>
                    </mxGeometry>
                </mxCell>
                <mxCell id="m5FnCCsyvvvx2oeaLUDX-10" value="Email&lt;span style=&quot;white-space: pre;&quot;&gt;&#9;&lt;/span&gt;" style="shape=partialRectangle;connectable=0;fillColor=none;top=0;left=0;bottom=0;right=0;align=left;spacingLeft=6;overflow=hidden;whiteSpace=wrap;html=1;" parent="m5FnCCsyvvvx2oeaLUDX-8" vertex="1">
                    <mxGeometry x="30" width="230" height="30" as="geometry">
                        <mxRectangle width="230" height="30" as="alternateBounds"/>
                    </mxGeometry>
                </mxCell>
                <mxCell id="m5FnCCsyvvvx2oeaLUDX-11" value="" style="shape=tableRow;horizontal=0;startSize=0;swimlaneHead=0;swimlaneBody=0;fillColor=none;collapsible=0;dropTarget=0;points=[[0,0.5],[1,0.5]];portConstraint=eastwest;top=0;left=0;right=0;bottom=0;" parent="m5FnCCsyvvvx2oeaLUDX-4" vertex="1">
                    <mxGeometry y="90" width="260" height="30" as="geometry"/>
                </mxCell>
                <mxCell id="m5FnCCsyvvvx2oeaLUDX-12" value="" style="shape=partialRectangle;connectable=0;fillColor=none;top=0;left=0;bottom=0;right=0;editable=1;overflow=hidden;whiteSpace=wrap;html=1;" parent="m5FnCCsyvvvx2oeaLUDX-11" vertex="1">
                    <mxGeometry width="30" height="30" as="geometry">
                        <mxRectangle width="30" height="30" as="alternateBounds"/>
                    </mxGeometry>
                </mxCell>
                <mxCell id="m5FnCCsyvvvx2oeaLUDX-13" value="Senha" style="shape=partialRectangle;connectable=0;fillColor=none;top=0;left=0;bottom=0;right=0;align=left;spacingLeft=6;overflow=hidden;whiteSpace=wrap;html=1;" parent="m5FnCCsyvvvx2oeaLUDX-11" vertex="1">
                    <mxGeometry x="30" width="230" height="30" as="geometry">
                        <mxRectangle width="230" height="30" as="alternateBounds"/>
                    </mxGeometry>
                </mxCell>
                <mxCell id="m5FnCCsyvvvx2oeaLUDX-14" value="" style="shape=tableRow;horizontal=0;startSize=0;swimlaneHead=0;swimlaneBody=0;fillColor=none;collapsible=0;dropTarget=0;points=[[0,0.5],[1,0.5]];portConstraint=eastwest;top=0;left=0;right=0;bottom=0;" parent="m5FnCCsyvvvx2oeaLUDX-4" vertex="1">
                    <mxGeometry y="120" width="260" height="30" as="geometry"/>
                </mxCell>
                <mxCell id="m5FnCCsyvvvx2oeaLUDX-15" value="" style="shape=partialRectangle;connectable=0;fillColor=none;top=0;left=0;bottom=0;right=0;editable=1;overflow=hidden;whiteSpace=wrap;html=1;" parent="m5FnCCsyvvvx2oeaLUDX-14" vertex="1">
                    <mxGeometry width="30" height="30" as="geometry">
                        <mxRectangle width="30" height="30" as="alternateBounds"/>
                    </mxGeometry>
                </mxCell>
                <mxCell id="m5FnCCsyvvvx2oeaLUDX-16" value="" style="shape=partialRectangle;connectable=0;fillColor=none;top=0;left=0;bottom=0;right=0;align=left;spacingLeft=6;overflow=hidden;whiteSpace=wrap;html=1;" parent="m5FnCCsyvvvx2oeaLUDX-14" vertex="1">
                    <mxGeometry x="30" width="230" height="30" as="geometry">
                        <mxRectangle width="230" height="30" as="alternateBounds"/>
                    </mxGeometry>
                </mxCell>
                <mxCell id="m5FnCCsyvvvx2oeaLUDX-17" value="Curriculo    " style="shape=table;startSize=30;container=1;collapsible=1;childLayout=tableLayout;fixedRows=1;rowLines=0;fontStyle=1;align=center;resizeLast=1;html=1;whiteSpace=wrap;fillColor=#0050ef;fontColor=#ffffff;strokeColor=#001DBC;" parent="1" vertex="1">
                    <mxGeometry x="350" y="180" width="276" height="270" as="geometry"/>
                </mxCell>
                <mxCell id="m5FnCCsyvvvx2oeaLUDX-18" value="" style="shape=tableRow;horizontal=0;startSize=0;swimlaneHead=0;swimlaneBody=0;fillColor=none;collapsible=0;dropTarget=0;points=[[0,0.5],[1,0.5]];portConstraint=eastwest;top=0;left=0;right=0;bottom=0;html=1;" parent="m5FnCCsyvvvx2oeaLUDX-17" vertex="1">
                    <mxGeometry y="30" width="276" height="30" as="geometry"/>
                </mxCell>
                <mxCell id="m5FnCCsyvvvx2oeaLUDX-19" value="PK" style="shape=partialRectangle;connectable=0;fillColor=none;top=0;left=0;bottom=0;right=0;fontStyle=1;overflow=hidden;html=1;whiteSpace=wrap;" parent="m5FnCCsyvvvx2oeaLUDX-18" vertex="1">
                    <mxGeometry width="60" height="30" as="geometry">
                        <mxRectangle width="60" height="30" as="alternateBounds"/>
                    </mxGeometry>
                </mxCell>
                <mxCell id="m5FnCCsyvvvx2oeaLUDX-20" value="ID" style="shape=partialRectangle;connectable=0;fillColor=none;top=0;left=0;bottom=0;right=0;align=left;spacingLeft=6;fontStyle=5;overflow=hidden;html=1;whiteSpace=wrap;" parent="m5FnCCsyvvvx2oeaLUDX-18" vertex="1">
                    <mxGeometry x="60" width="216" height="30" as="geometry">
                        <mxRectangle width="216" height="30" as="alternateBounds"/>
                    </mxGeometry>
                </mxCell>
                <mxCell id="m5FnCCsyvvvx2oeaLUDX-21" value="" style="shape=tableRow;horizontal=0;startSize=0;swimlaneHead=0;swimlaneBody=0;fillColor=none;collapsible=0;dropTarget=0;points=[[0,0.5],[1,0.5]];portConstraint=eastwest;top=0;left=0;right=0;bottom=1;html=1;" parent="m5FnCCsyvvvx2oeaLUDX-17" vertex="1">
                    <mxGeometry y="60" width="276" height="30" as="geometry"/>
                </mxCell>
                <mxCell id="m5FnCCsyvvvx2oeaLUDX-22" value="FK" style="shape=partialRectangle;connectable=0;fillColor=none;top=0;left=0;bottom=0;right=0;fontStyle=1;overflow=hidden;html=1;whiteSpace=wrap;" parent="m5FnCCsyvvvx2oeaLUDX-21" vertex="1">
                    <mxGeometry width="60" height="30" as="geometry">
                        <mxRectangle width="60" height="30" as="alternateBounds"/>
                    </mxGeometry>
                </mxCell>
                <mxCell id="m5FnCCsyvvvx2oeaLUDX-23" value="id_usuario " style="shape=partialRectangle;connectable=0;fillColor=none;top=0;left=0;bottom=0;right=0;align=left;spacingLeft=6;fontStyle=5;overflow=hidden;html=1;whiteSpace=wrap;" parent="m5FnCCsyvvvx2oeaLUDX-21" vertex="1">
                    <mxGeometry x="60" width="216" height="30" as="geometry">
                        <mxRectangle width="216" height="30" as="alternateBounds"/>
                    </mxGeometry>
                </mxCell>
                <mxCell id="m5FnCCsyvvvx2oeaLUDX-24" value="" style="shape=tableRow;horizontal=0;startSize=0;swimlaneHead=0;swimlaneBody=0;fillColor=none;collapsible=0;dropTarget=0;points=[[0,0.5],[1,0.5]];portConstraint=eastwest;top=0;left=0;right=0;bottom=0;html=1;" parent="m5FnCCsyvvvx2oeaLUDX-17" vertex="1">
                    <mxGeometry y="90" width="276" height="30" as="geometry"/>
                </mxCell>
                <mxCell id="m5FnCCsyvvvx2oeaLUDX-25" value="" style="shape=partialRectangle;connectable=0;fillColor=none;top=0;left=0;bottom=0;right=0;editable=1;overflow=hidden;html=1;whiteSpace=wrap;" parent="m5FnCCsyvvvx2oeaLUDX-24" vertex="1">
                    <mxGeometry width="60" height="30" as="geometry">
                        <mxRectangle width="60" height="30" as="alternateBounds"/>
                    </mxGeometry>
                </mxCell>
                <mxCell id="m5FnCCsyvvvx2oeaLUDX-26" value="nome            " style="shape=partialRectangle;connectable=0;fillColor=none;top=0;left=0;bottom=0;right=0;align=left;spacingLeft=6;overflow=hidden;html=1;whiteSpace=wrap;" parent="m5FnCCsyvvvx2oeaLUDX-24" vertex="1">
                    <mxGeometry x="60" width="216" height="30" as="geometry">
                        <mxRectangle width="216" height="30" as="alternateBounds"/>
                    </mxGeometry>
                </mxCell>
                <mxCell id="m5FnCCsyvvvx2oeaLUDX-27" value="" style="shape=tableRow;horizontal=0;startSize=0;swimlaneHead=0;swimlaneBody=0;fillColor=none;collapsible=0;dropTarget=0;points=[[0,0.5],[1,0.5]];portConstraint=eastwest;top=0;left=0;right=0;bottom=0;html=1;" parent="m5FnCCsyvvvx2oeaLUDX-17" vertex="1">
                    <mxGeometry y="120" width="276" height="30" as="geometry"/>
                </mxCell>
                <mxCell id="m5FnCCsyvvvx2oeaLUDX-28" value="" style="shape=partialRectangle;connectable=0;fillColor=none;top=0;left=0;bottom=0;right=0;editable=1;overflow=hidden;html=1;whiteSpace=wrap;" parent="m5FnCCsyvvvx2oeaLUDX-27" vertex="1">
                    <mxGeometry width="60" height="30" as="geometry">
                        <mxRectangle width="60" height="30" as="alternateBounds"/>
                    </mxGeometry>
                </mxCell>
                <mxCell id="m5FnCCsyvvvx2oeaLUDX-29" value="telefone        " style="shape=partialRectangle;connectable=0;fillColor=none;top=0;left=0;bottom=0;right=0;align=left;spacingLeft=6;overflow=hidden;html=1;whiteSpace=wrap;" parent="m5FnCCsyvvvx2oeaLUDX-27" vertex="1">
                    <mxGeometry x="60" width="216" height="30" as="geometry">
                        <mxRectangle width="216" height="30" as="alternateBounds"/>
                    </mxGeometry>
                </mxCell>
                <mxCell id="m5FnCCsyvvvx2oeaLUDX-30" value="" style="shape=tableRow;horizontal=0;startSize=0;swimlaneHead=0;swimlaneBody=0;fillColor=none;collapsible=0;dropTarget=0;points=[[0,0.5],[1,0.5]];portConstraint=eastwest;top=0;left=0;right=0;bottom=0;html=1;" parent="m5FnCCsyvvvx2oeaLUDX-17" vertex="1">
                    <mxGeometry y="150" width="276" height="30" as="geometry"/>
                </mxCell>
                <mxCell id="m5FnCCsyvvvx2oeaLUDX-31" value="" style="shape=partialRectangle;connectable=0;fillColor=none;top=0;left=0;bottom=0;right=0;editable=1;overflow=hidden;html=1;whiteSpace=wrap;" parent="m5FnCCsyvvvx2oeaLUDX-30" vertex="1">
                    <mxGeometry width="60" height="30" as="geometry">
                        <mxRectangle width="60" height="30" as="alternateBounds"/>
                    </mxGeometry>
                </mxCell>
                <mxCell id="m5FnCCsyvvvx2oeaLUDX-32" value="perfilLinkedIn  " style="shape=partialRectangle;connectable=0;fillColor=none;top=0;left=0;bottom=0;right=0;align=left;spacingLeft=6;overflow=hidden;html=1;whiteSpace=wrap;" parent="m5FnCCsyvvvx2oeaLUDX-30" vertex="1">
                    <mxGeometry x="60" width="216" height="30" as="geometry">
                        <mxRectangle width="216" height="30" as="alternateBounds"/>
                    </mxGeometry>
                </mxCell>
                <mxCell id="m5FnCCsyvvvx2oeaLUDX-33" value="" style="shape=tableRow;horizontal=0;startSize=0;swimlaneHead=0;swimlaneBody=0;fillColor=none;collapsible=0;dropTarget=0;points=[[0,0.5],[1,0.5]];portConstraint=eastwest;top=0;left=0;right=0;bottom=0;html=1;" parent="m5FnCCsyvvvx2oeaLUDX-17" vertex="1">
                    <mxGeometry y="180" width="276" height="30" as="geometry"/>
                </mxCell>
                <mxCell id="m5FnCCsyvvvx2oeaLUDX-34" value="" style="shape=partialRectangle;connectable=0;fillColor=none;top=0;left=0;bottom=0;right=0;editable=1;overflow=hidden;html=1;whiteSpace=wrap;" parent="m5FnCCsyvvvx2oeaLUDX-33" vertex="1">
                    <mxGeometry width="60" height="30" as="geometry">
                        <mxRectangle width="60" height="30" as="alternateBounds"/>
                    </mxGeometry>
                </mxCell>
                <mxCell id="m5FnCCsyvvvx2oeaLUDX-35" value="cidade          " style="shape=partialRectangle;connectable=0;fillColor=none;top=0;left=0;bottom=0;right=0;align=left;spacingLeft=6;overflow=hidden;html=1;whiteSpace=wrap;" parent="m5FnCCsyvvvx2oeaLUDX-33" vertex="1">
                    <mxGeometry x="60" width="216" height="30" as="geometry">
                        <mxRectangle width="216" height="30" as="alternateBounds"/>
                    </mxGeometry>
                </mxCell>
                <mxCell id="m5FnCCsyvvvx2oeaLUDX-36" value="" style="shape=tableRow;horizontal=0;startSize=0;swimlaneHead=0;swimlaneBody=0;fillColor=none;collapsible=0;dropTarget=0;points=[[0,0.5],[1,0.5]];portConstraint=eastwest;top=0;left=0;right=0;bottom=0;html=1;" parent="m5FnCCsyvvvx2oeaLUDX-17" vertex="1">
                    <mxGeometry y="210" width="276" height="30" as="geometry"/>
                </mxCell>
                <mxCell id="m5FnCCsyvvvx2oeaLUDX-37" value="" style="shape=partialRectangle;connectable=0;fillColor=none;top=0;left=0;bottom=0;right=0;editable=1;overflow=hidden;html=1;whiteSpace=wrap;" parent="m5FnCCsyvvvx2oeaLUDX-36" vertex="1">
                    <mxGeometry width="60" height="30" as="geometry">
                        <mxRectangle width="60" height="30" as="alternateBounds"/>
                    </mxGeometry>
                </mxCell>
                <mxCell id="m5FnCCsyvvvx2oeaLUDX-38" value="dataNascimento  " style="shape=partialRectangle;connectable=0;fillColor=none;top=0;left=0;bottom=0;right=0;align=left;spacingLeft=6;overflow=hidden;html=1;whiteSpace=wrap;" parent="m5FnCCsyvvvx2oeaLUDX-36" vertex="1">
                    <mxGeometry x="60" width="216" height="30" as="geometry">
                        <mxRectangle width="216" height="30" as="alternateBounds"/>
                    </mxGeometry>
                </mxCell>
                <mxCell id="m5FnCCsyvvvx2oeaLUDX-39" value="" style="shape=tableRow;horizontal=0;startSize=0;swimlaneHead=0;swimlaneBody=0;fillColor=none;collapsible=0;dropTarget=0;points=[[0,0.5],[1,0.5]];portConstraint=eastwest;top=0;left=0;right=0;bottom=0;html=1;" parent="m5FnCCsyvvvx2oeaLUDX-17" vertex="1">
                    <mxGeometry y="240" width="276" height="30" as="geometry"/>
                </mxCell>
                <mxCell id="m5FnCCsyvvvx2oeaLUDX-40" value="" style="shape=partialRectangle;connectable=0;fillColor=none;top=0;left=0;bottom=0;right=0;editable=1;overflow=hidden;html=1;whiteSpace=wrap;" parent="m5FnCCsyvvvx2oeaLUDX-39" vertex="1">
                    <mxGeometry width="60" height="30" as="geometry">
                        <mxRectangle width="60" height="30" as="alternateBounds"/>
                    </mxGeometry>
                </mxCell>
                <mxCell id="m5FnCCsyvvvx2oeaLUDX-41" value="areaAtuacao     " style="shape=partialRectangle;connectable=0;fillColor=none;top=0;left=0;bottom=0;right=0;align=left;spacingLeft=6;overflow=hidden;html=1;whiteSpace=wrap;" parent="m5FnCCsyvvvx2oeaLUDX-39" vertex="1">
                    <mxGeometry x="60" width="216" height="30" as="geometry">
                        <mxRectangle width="216" height="30" as="alternateBounds"/>
                    </mxGeometry>
                </mxCell>
                <mxCell id="m5FnCCsyvvvx2oeaLUDX-42" value="Experiencia " style="shape=table;startSize=30;container=1;collapsible=1;childLayout=tableLayout;fixedRows=1;rowLines=0;fontStyle=1;align=center;resizeLast=1;html=1;whiteSpace=wrap;fillColor=#1ba1e2;fontColor=#ffffff;strokeColor=#006EAF;" parent="1" vertex="1">
                    <mxGeometry x="350" y="500" width="280" height="200" as="geometry"/>
                </mxCell>
                <mxCell id="m5FnCCsyvvvx2oeaLUDX-43" value="" style="shape=tableRow;horizontal=0;startSize=0;swimlaneHead=0;swimlaneBody=0;fillColor=none;collapsible=0;dropTarget=0;points=[[0,0.5],[1,0.5]];portConstraint=eastwest;top=0;left=0;right=0;bottom=0;html=1;" parent="m5FnCCsyvvvx2oeaLUDX-42" vertex="1">
                    <mxGeometry y="30" width="280" height="20" as="geometry"/>
                </mxCell>
                <mxCell id="m5FnCCsyvvvx2oeaLUDX-44" value="PK" style="shape=partialRectangle;connectable=0;fillColor=none;top=0;left=0;bottom=0;right=0;fontStyle=1;overflow=hidden;html=1;whiteSpace=wrap;" parent="m5FnCCsyvvvx2oeaLUDX-43" vertex="1">
                    <mxGeometry width="60" height="20" as="geometry">
                        <mxRectangle width="60" height="20" as="alternateBounds"/>
                    </mxGeometry>
                </mxCell>
                <mxCell id="m5FnCCsyvvvx2oeaLUDX-45" value="ID" style="shape=partialRectangle;connectable=0;fillColor=none;top=0;left=0;bottom=0;right=0;align=left;spacingLeft=6;fontStyle=5;overflow=hidden;html=1;whiteSpace=wrap;" parent="m5FnCCsyvvvx2oeaLUDX-43" vertex="1">
                    <mxGeometry x="60" width="220" height="20" as="geometry">
                        <mxRectangle width="220" height="20" as="alternateBounds"/>
                    </mxGeometry>
                </mxCell>
                <mxCell id="m5FnCCsyvvvx2oeaLUDX-46" value="" style="shape=tableRow;horizontal=0;startSize=0;swimlaneHead=0;swimlaneBody=0;fillColor=none;collapsible=0;dropTarget=0;points=[[0,0.5],[1,0.5]];portConstraint=eastwest;top=0;left=0;right=0;bottom=1;html=1;" parent="m5FnCCsyvvvx2oeaLUDX-42" vertex="1">
                    <mxGeometry y="50" width="280" height="30" as="geometry"/>
                </mxCell>
                <mxCell id="m5FnCCsyvvvx2oeaLUDX-47" value="FK" style="shape=partialRectangle;connectable=0;fillColor=none;top=0;left=0;bottom=0;right=0;fontStyle=1;overflow=hidden;html=1;whiteSpace=wrap;" parent="m5FnCCsyvvvx2oeaLUDX-46" vertex="1">
                    <mxGeometry width="60" height="30" as="geometry">
                        <mxRectangle width="60" height="30" as="alternateBounds"/>
                    </mxGeometry>
                </mxCell>
                <mxCell id="m5FnCCsyvvvx2oeaLUDX-48" value="id_curriculo" style="shape=partialRectangle;connectable=0;fillColor=none;top=0;left=0;bottom=0;right=0;align=left;spacingLeft=6;fontStyle=5;overflow=hidden;html=1;whiteSpace=wrap;" parent="m5FnCCsyvvvx2oeaLUDX-46" vertex="1">
                    <mxGeometry x="60" width="220" height="30" as="geometry">
                        <mxRectangle width="220" height="30" as="alternateBounds"/>
                    </mxGeometry>
                </mxCell>
                <mxCell id="m5FnCCsyvvvx2oeaLUDX-49" value="" style="shape=tableRow;horizontal=0;startSize=0;swimlaneHead=0;swimlaneBody=0;fillColor=none;collapsible=0;dropTarget=0;points=[[0,0.5],[1,0.5]];portConstraint=eastwest;top=0;left=0;right=0;bottom=0;html=1;" parent="m5FnCCsyvvvx2oeaLUDX-42" vertex="1">
                    <mxGeometry y="80" width="280" height="30" as="geometry"/>
                </mxCell>
                <mxCell id="m5FnCCsyvvvx2oeaLUDX-50" value="" style="shape=partialRectangle;connectable=0;fillColor=none;top=0;left=0;bottom=0;right=0;editable=1;overflow=hidden;html=1;whiteSpace=wrap;" parent="m5FnCCsyvvvx2oeaLUDX-49" vertex="1">
                    <mxGeometry width="60" height="30" as="geometry">
                        <mxRectangle width="60" height="30" as="alternateBounds"/>
                    </mxGeometry>
                </mxCell>
                <mxCell id="m5FnCCsyvvvx2oeaLUDX-51" value="nomeEmpresa " style="shape=partialRectangle;connectable=0;fillColor=none;top=0;left=0;bottom=0;right=0;align=left;spacingLeft=6;overflow=hidden;html=1;whiteSpace=wrap;" parent="m5FnCCsyvvvx2oeaLUDX-49" vertex="1">
                    <mxGeometry x="60" width="220" height="30" as="geometry">
                        <mxRectangle width="220" height="30" as="alternateBounds"/>
                    </mxGeometry>
                </mxCell>
                <mxCell id="m5FnCCsyvvvx2oeaLUDX-52" value="" style="shape=tableRow;horizontal=0;startSize=0;swimlaneHead=0;swimlaneBody=0;fillColor=none;collapsible=0;dropTarget=0;points=[[0,0.5],[1,0.5]];portConstraint=eastwest;top=0;left=0;right=0;bottom=0;html=1;" parent="m5FnCCsyvvvx2oeaLUDX-42" vertex="1">
                    <mxGeometry y="110" width="280" height="30" as="geometry"/>
                </mxCell>
                <mxCell id="m5FnCCsyvvvx2oeaLUDX-53" value="" style="shape=partialRectangle;connectable=0;fillColor=none;top=0;left=0;bottom=0;right=0;editable=1;overflow=hidden;html=1;whiteSpace=wrap;" parent="m5FnCCsyvvvx2oeaLUDX-52" vertex="1">
                    <mxGeometry width="60" height="30" as="geometry">
                        <mxRectangle width="60" height="30" as="alternateBounds"/>
                    </mxGeometry>
                </mxCell>
                <mxCell id="m5FnCCsyvvvx2oeaLUDX-54" value="periodo     " style="shape=partialRectangle;connectable=0;fillColor=none;top=0;left=0;bottom=0;right=0;align=left;spacingLeft=6;overflow=hidden;html=1;whiteSpace=wrap;" parent="m5FnCCsyvvvx2oeaLUDX-52" vertex="1">
                    <mxGeometry x="60" width="220" height="30" as="geometry">
                        <mxRectangle width="220" height="30" as="alternateBounds"/>
                    </mxGeometry>
                </mxCell>
                <mxCell id="m5FnCCsyvvvx2oeaLUDX-55" value="" style="shape=tableRow;horizontal=0;startSize=0;swimlaneHead=0;swimlaneBody=0;fillColor=none;collapsible=0;dropTarget=0;points=[[0,0.5],[1,0.5]];portConstraint=eastwest;top=0;left=0;right=0;bottom=0;html=1;" parent="m5FnCCsyvvvx2oeaLUDX-42" vertex="1">
                    <mxGeometry y="140" width="280" height="30" as="geometry"/>
                </mxCell>
                <mxCell id="m5FnCCsyvvvx2oeaLUDX-56" value="" style="shape=partialRectangle;connectable=0;fillColor=none;top=0;left=0;bottom=0;right=0;editable=1;overflow=hidden;html=1;whiteSpace=wrap;" parent="m5FnCCsyvvvx2oeaLUDX-55" vertex="1">
                    <mxGeometry width="60" height="30" as="geometry">
                        <mxRectangle width="60" height="30" as="alternateBounds"/>
                    </mxGeometry>
                </mxCell>
                <mxCell id="m5FnCCsyvvvx2oeaLUDX-57" value="cargo       " style="shape=partialRectangle;connectable=0;fillColor=none;top=0;left=0;bottom=0;right=0;align=left;spacingLeft=6;overflow=hidden;html=1;whiteSpace=wrap;" parent="m5FnCCsyvvvx2oeaLUDX-55" vertex="1">
                    <mxGeometry x="60" width="220" height="30" as="geometry">
                        <mxRectangle width="220" height="30" as="alternateBounds"/>
                    </mxGeometry>
                </mxCell>
                <mxCell id="m5FnCCsyvvvx2oeaLUDX-58" value="" style="shape=tableRow;horizontal=0;startSize=0;swimlaneHead=0;swimlaneBody=0;fillColor=none;collapsible=0;dropTarget=0;points=[[0,0.5],[1,0.5]];portConstraint=eastwest;top=0;left=0;right=0;bottom=0;html=1;" parent="m5FnCCsyvvvx2oeaLUDX-42" vertex="1">
                    <mxGeometry y="170" width="280" height="30" as="geometry"/>
                </mxCell>
                <mxCell id="m5FnCCsyvvvx2oeaLUDX-59" value="" style="shape=partialRectangle;connectable=0;fillColor=none;top=0;left=0;bottom=0;right=0;editable=1;overflow=hidden;html=1;whiteSpace=wrap;" parent="m5FnCCsyvvvx2oeaLUDX-58" vertex="1">
                    <mxGeometry width="60" height="30" as="geometry">
                        <mxRectangle width="60" height="30" as="alternateBounds"/>
                    </mxGeometry>
                </mxCell>
                <mxCell id="m5FnCCsyvvvx2oeaLUDX-60" value="atividades  " style="shape=partialRectangle;connectable=0;fillColor=none;top=0;left=0;bottom=0;right=0;align=left;spacingLeft=6;overflow=hidden;html=1;whiteSpace=wrap;" parent="m5FnCCsyvvvx2oeaLUDX-58" vertex="1">
                    <mxGeometry x="60" width="220" height="30" as="geometry">
                        <mxRectangle width="220" height="30" as="alternateBounds"/>
                    </mxGeometry>
                </mxCell>
                <mxCell id="m5FnCCsyvvvx2oeaLUDX-61" value="Qualificacao" style="shape=table;startSize=30;container=1;collapsible=1;childLayout=tableLayout;fixedRows=1;rowLines=0;fontStyle=1;align=center;resizeLast=1;html=1;whiteSpace=wrap;fillColor=#1ba1e2;fontColor=#ffffff;strokeColor=#006EAF;" parent="1" vertex="1">
                    <mxGeometry x="390" y="10" width="200" height="150" as="geometry"/>
                </mxCell>
                <mxCell id="m5FnCCsyvvvx2oeaLUDX-62" value="" style="shape=tableRow;horizontal=0;startSize=0;swimlaneHead=0;swimlaneBody=0;fillColor=none;collapsible=0;dropTarget=0;points=[[0,0.5],[1,0.5]];portConstraint=eastwest;top=0;left=0;right=0;bottom=0;html=1;" parent="m5FnCCsyvvvx2oeaLUDX-61" vertex="1">
                    <mxGeometry y="30" width="200" height="30" as="geometry"/>
                </mxCell>
                <mxCell id="m5FnCCsyvvvx2oeaLUDX-63" value="PK" style="shape=partialRectangle;connectable=0;fillColor=none;top=0;left=0;bottom=0;right=0;fontStyle=1;overflow=hidden;html=1;whiteSpace=wrap;" parent="m5FnCCsyvvvx2oeaLUDX-62" vertex="1">
                    <mxGeometry width="60" height="30" as="geometry">
                        <mxRectangle width="60" height="30" as="alternateBounds"/>
                    </mxGeometry>
                </mxCell>
                <mxCell id="m5FnCCsyvvvx2oeaLUDX-64" value="ID" style="shape=partialRectangle;connectable=0;fillColor=none;top=0;left=0;bottom=0;right=0;align=left;spacingLeft=6;fontStyle=5;overflow=hidden;html=1;whiteSpace=wrap;" parent="m5FnCCsyvvvx2oeaLUDX-62" vertex="1">
                    <mxGeometry x="60" width="140" height="30" as="geometry">
                        <mxRectangle width="140" height="30" as="alternateBounds"/>
                    </mxGeometry>
                </mxCell>
                <mxCell id="m5FnCCsyvvvx2oeaLUDX-65" value="" style="shape=tableRow;horizontal=0;startSize=0;swimlaneHead=0;swimlaneBody=0;fillColor=none;collapsible=0;dropTarget=0;points=[[0,0.5],[1,0.5]];portConstraint=eastwest;top=0;left=0;right=0;bottom=1;html=1;" parent="m5FnCCsyvvvx2oeaLUDX-61" vertex="1">
                    <mxGeometry y="60" width="200" height="30" as="geometry"/>
                </mxCell>
                <mxCell id="m5FnCCsyvvvx2oeaLUDX-66" value="FK" style="shape=partialRectangle;connectable=0;fillColor=none;top=0;left=0;bottom=0;right=0;fontStyle=1;overflow=hidden;html=1;whiteSpace=wrap;" parent="m5FnCCsyvvvx2oeaLUDX-65" vertex="1">
                    <mxGeometry width="60" height="30" as="geometry">
                        <mxRectangle width="60" height="30" as="alternateBounds"/>
                    </mxGeometry>
                </mxCell>
                <mxCell id="m5FnCCsyvvvx2oeaLUDX-67" value="id_curriculo" style="shape=partialRectangle;connectable=0;fillColor=none;top=0;left=0;bottom=0;right=0;align=left;spacingLeft=6;fontStyle=5;overflow=hidden;html=1;whiteSpace=wrap;" parent="m5FnCCsyvvvx2oeaLUDX-65" vertex="1">
                    <mxGeometry x="60" width="140" height="30" as="geometry">
                        <mxRectangle width="140" height="30" as="alternateBounds"/>
                    </mxGeometry>
                </mxCell>
                <mxCell id="m5FnCCsyvvvx2oeaLUDX-68" value="" style="shape=tableRow;horizontal=0;startSize=0;swimlaneHead=0;swimlaneBody=0;fillColor=none;collapsible=0;dropTarget=0;points=[[0,0.5],[1,0.5]];portConstraint=eastwest;top=0;left=0;right=0;bottom=0;html=1;" parent="m5FnCCsyvvvx2oeaLUDX-61" vertex="1">
                    <mxGeometry y="90" width="200" height="30" as="geometry"/>
                </mxCell>
                <mxCell id="m5FnCCsyvvvx2oeaLUDX-69" value="" style="shape=partialRectangle;connectable=0;fillColor=none;top=0;left=0;bottom=0;right=0;editable=1;overflow=hidden;html=1;whiteSpace=wrap;" parent="m5FnCCsyvvvx2oeaLUDX-68" vertex="1">
                    <mxGeometry width="60" height="30" as="geometry">
                        <mxRectangle width="60" height="30" as="alternateBounds"/>
                    </mxGeometry>
                </mxCell>
                <mxCell id="m5FnCCsyvvvx2oeaLUDX-70" value="descricao   " style="shape=partialRectangle;connectable=0;fillColor=none;top=0;left=0;bottom=0;right=0;align=left;spacingLeft=6;overflow=hidden;html=1;whiteSpace=wrap;" parent="m5FnCCsyvvvx2oeaLUDX-68" vertex="1">
                    <mxGeometry x="60" width="140" height="30" as="geometry">
                        <mxRectangle width="140" height="30" as="alternateBounds"/>
                    </mxGeometry>
                </mxCell>
                <mxCell id="m5FnCCsyvvvx2oeaLUDX-71" value="" style="shape=tableRow;horizontal=0;startSize=0;swimlaneHead=0;swimlaneBody=0;fillColor=none;collapsible=0;dropTarget=0;points=[[0,0.5],[1,0.5]];portConstraint=eastwest;top=0;left=0;right=0;bottom=0;html=1;" parent="m5FnCCsyvvvx2oeaLUDX-61" vertex="1">
                    <mxGeometry y="120" width="200" height="30" as="geometry"/>
                </mxCell>
                <mxCell id="m5FnCCsyvvvx2oeaLUDX-72" value="" style="shape=partialRectangle;connectable=0;fillColor=none;top=0;left=0;bottom=0;right=0;editable=1;overflow=hidden;html=1;whiteSpace=wrap;" parent="m5FnCCsyvvvx2oeaLUDX-71" vertex="1">
                    <mxGeometry width="60" height="30" as="geometry">
                        <mxRectangle width="60" height="30" as="alternateBounds"/>
                    </mxGeometry>
                </mxCell>
                <mxCell id="m5FnCCsyvvvx2oeaLUDX-73" value="" style="shape=partialRectangle;connectable=0;fillColor=none;top=0;left=0;bottom=0;right=0;align=left;spacingLeft=6;overflow=hidden;html=1;whiteSpace=wrap;" parent="m5FnCCsyvvvx2oeaLUDX-71" vertex="1">
                    <mxGeometry x="60" width="140" height="30" as="geometry">
                        <mxRectangle width="140" height="30" as="alternateBounds"/>
                    </mxGeometry>
                </mxCell>
                <mxCell id="m5FnCCsyvvvx2oeaLUDX-88" value="Idioma    " style="shape=table;startSize=30;container=1;collapsible=1;childLayout=tableLayout;fixedRows=1;rowLines=0;fontStyle=1;align=center;resizeLast=1;html=1;whiteSpace=wrap;fillColor=#1ba1e2;fontColor=#ffffff;strokeColor=#006EAF;" parent="1" vertex="1">
                    <mxGeometry x="60" y="30" width="200" height="150" as="geometry"/>
                </mxCell>
                <mxCell id="m5FnCCsyvvvx2oeaLUDX-89" value="" style="shape=tableRow;horizontal=0;startSize=0;swimlaneHead=0;swimlaneBody=0;fillColor=none;collapsible=0;dropTarget=0;points=[[0,0.5],[1,0.5]];portConstraint=eastwest;top=0;left=0;right=0;bottom=0;html=1;" parent="m5FnCCsyvvvx2oeaLUDX-88" vertex="1">
                    <mxGeometry y="30" width="200" height="30" as="geometry"/>
                </mxCell>
                <mxCell id="m5FnCCsyvvvx2oeaLUDX-90" value="PK" style="shape=partialRectangle;connectable=0;fillColor=none;top=0;left=0;bottom=0;right=0;fontStyle=1;overflow=hidden;html=1;whiteSpace=wrap;" parent="m5FnCCsyvvvx2oeaLUDX-89" vertex="1">
                    <mxGeometry width="60" height="30" as="geometry">
                        <mxRectangle width="60" height="30" as="alternateBounds"/>
                    </mxGeometry>
                </mxCell>
                <mxCell id="m5FnCCsyvvvx2oeaLUDX-91" value="ID" style="shape=partialRectangle;connectable=0;fillColor=none;top=0;left=0;bottom=0;right=0;align=left;spacingLeft=6;fontStyle=5;overflow=hidden;html=1;whiteSpace=wrap;" parent="m5FnCCsyvvvx2oeaLUDX-89" vertex="1">
                    <mxGeometry x="60" width="140" height="30" as="geometry">
                        <mxRectangle width="140" height="30" as="alternateBounds"/>
                    </mxGeometry>
                </mxCell>
                <mxCell id="m5FnCCsyvvvx2oeaLUDX-92" value="" style="shape=tableRow;horizontal=0;startSize=0;swimlaneHead=0;swimlaneBody=0;fillColor=none;collapsible=0;dropTarget=0;points=[[0,0.5],[1,0.5]];portConstraint=eastwest;top=0;left=0;right=0;bottom=1;html=1;" parent="m5FnCCsyvvvx2oeaLUDX-88" vertex="1">
                    <mxGeometry y="60" width="200" height="30" as="geometry"/>
                </mxCell>
                <mxCell id="m5FnCCsyvvvx2oeaLUDX-93" value="FK" style="shape=partialRectangle;connectable=0;fillColor=none;top=0;left=0;bottom=0;right=0;fontStyle=1;overflow=hidden;html=1;whiteSpace=wrap;" parent="m5FnCCsyvvvx2oeaLUDX-92" vertex="1">
                    <mxGeometry width="60" height="30" as="geometry">
                        <mxRectangle width="60" height="30" as="alternateBounds"/>
                    </mxGeometry>
                </mxCell>
                <mxCell id="m5FnCCsyvvvx2oeaLUDX-94" value="id_curriculo" style="shape=partialRectangle;connectable=0;fillColor=none;top=0;left=0;bottom=0;right=0;align=left;spacingLeft=6;fontStyle=5;overflow=hidden;html=1;whiteSpace=wrap;" parent="m5FnCCsyvvvx2oeaLUDX-92" vertex="1">
                    <mxGeometry x="60" width="140" height="30" as="geometry">
                        <mxRectangle width="140" height="30" as="alternateBounds"/>
                    </mxGeometry>
                </mxCell>
                <mxCell id="m5FnCCsyvvvx2oeaLUDX-95" value="" style="shape=tableRow;horizontal=0;startSize=0;swimlaneHead=0;swimlaneBody=0;fillColor=none;collapsible=0;dropTarget=0;points=[[0,0.5],[1,0.5]];portConstraint=eastwest;top=0;left=0;right=0;bottom=0;html=1;" parent="m5FnCCsyvvvx2oeaLUDX-88" vertex="1">
                    <mxGeometry y="90" width="200" height="30" as="geometry"/>
                </mxCell>
                <mxCell id="m5FnCCsyvvvx2oeaLUDX-96" value="" style="shape=partialRectangle;connectable=0;fillColor=none;top=0;left=0;bottom=0;right=0;editable=1;overflow=hidden;html=1;whiteSpace=wrap;" parent="m5FnCCsyvvvx2oeaLUDX-95" vertex="1">
                    <mxGeometry width="60" height="30" as="geometry">
                        <mxRectangle width="60" height="30" as="alternateBounds"/>
                    </mxGeometry>
                </mxCell>
                <mxCell id="m5FnCCsyvvvx2oeaLUDX-97" value="nome        " style="shape=partialRectangle;connectable=0;fillColor=none;top=0;left=0;bottom=0;right=0;align=left;spacingLeft=6;overflow=hidden;html=1;whiteSpace=wrap;" parent="m5FnCCsyvvvx2oeaLUDX-95" vertex="1">
                    <mxGeometry x="60" width="140" height="30" as="geometry">
                        <mxRectangle width="140" height="30" as="alternateBounds"/>
                    </mxGeometry>
                </mxCell>
                <mxCell id="m5FnCCsyvvvx2oeaLUDX-101" value="" style="shape=tableRow;horizontal=0;startSize=0;swimlaneHead=0;swimlaneBody=0;fillColor=none;collapsible=0;dropTarget=0;points=[[0,0.5],[1,0.5]];portConstraint=eastwest;top=0;left=0;right=0;bottom=0;html=1;" parent="m5FnCCsyvvvx2oeaLUDX-88" vertex="1">
                    <mxGeometry y="120" width="200" height="30" as="geometry"/>
                </mxCell>
                <mxCell id="m5FnCCsyvvvx2oeaLUDX-102" value="" style="shape=partialRectangle;connectable=0;fillColor=none;top=0;left=0;bottom=0;right=0;editable=1;overflow=hidden;html=1;whiteSpace=wrap;" parent="m5FnCCsyvvvx2oeaLUDX-101" vertex="1">
                    <mxGeometry width="60" height="30" as="geometry">
                        <mxRectangle width="60" height="30" as="alternateBounds"/>
                    </mxGeometry>
                </mxCell>
                <mxCell id="m5FnCCsyvvvx2oeaLUDX-103" value="nivel       " style="shape=partialRectangle;connectable=0;fillColor=none;top=0;left=0;bottom=0;right=0;align=left;spacingLeft=6;overflow=hidden;html=1;whiteSpace=wrap;" parent="m5FnCCsyvvvx2oeaLUDX-101" vertex="1">
                    <mxGeometry x="60" width="140" height="30" as="geometry">
                        <mxRectangle width="140" height="30" as="alternateBounds"/>
                    </mxGeometry>
                </mxCell>
                <mxCell id="m5FnCCsyvvvx2oeaLUDX-104" value="Curso    " style="shape=table;startSize=30;container=1;collapsible=1;childLayout=tableLayout;fixedRows=1;rowLines=0;fontStyle=1;align=center;resizeLast=1;html=1;whiteSpace=wrap;fillColor=#1ba1e2;fontColor=#ffffff;strokeColor=#006EAF;" parent="1" vertex="1">
                    <mxGeometry x="40" y="350" width="170" height="210" as="geometry"/>
                </mxCell>
                <mxCell id="m5FnCCsyvvvx2oeaLUDX-105" value="" style="shape=tableRow;horizontal=0;startSize=0;swimlaneHead=0;swimlaneBody=0;fillColor=none;collapsible=0;dropTarget=0;points=[[0,0.5],[1,0.5]];portConstraint=eastwest;top=0;left=0;right=0;bottom=0;html=1;" parent="m5FnCCsyvvvx2oeaLUDX-104" vertex="1">
                    <mxGeometry y="30" width="170" height="30" as="geometry"/>
                </mxCell>
                <mxCell id="m5FnCCsyvvvx2oeaLUDX-106" value="PK" style="shape=partialRectangle;connectable=0;fillColor=none;top=0;left=0;bottom=0;right=0;fontStyle=1;overflow=hidden;html=1;whiteSpace=wrap;" parent="m5FnCCsyvvvx2oeaLUDX-105" vertex="1">
                    <mxGeometry width="60" height="30" as="geometry">
                        <mxRectangle width="60" height="30" as="alternateBounds"/>
                    </mxGeometry>
                </mxCell>
                <mxCell id="m5FnCCsyvvvx2oeaLUDX-107" value="ID" style="shape=partialRectangle;connectable=0;fillColor=none;top=0;left=0;bottom=0;right=0;align=left;spacingLeft=6;fontStyle=5;overflow=hidden;html=1;whiteSpace=wrap;" parent="m5FnCCsyvvvx2oeaLUDX-105" vertex="1">
                    <mxGeometry x="60" width="110" height="30" as="geometry">
                        <mxRectangle width="110" height="30" as="alternateBounds"/>
                    </mxGeometry>
                </mxCell>
                <mxCell id="m5FnCCsyvvvx2oeaLUDX-108" value="" style="shape=tableRow;horizontal=0;startSize=0;swimlaneHead=0;swimlaneBody=0;fillColor=none;collapsible=0;dropTarget=0;points=[[0,0.5],[1,0.5]];portConstraint=eastwest;top=0;left=0;right=0;bottom=1;html=1;" parent="m5FnCCsyvvvx2oeaLUDX-104" vertex="1">
                    <mxGeometry y="60" width="170" height="30" as="geometry"/>
                </mxCell>
                <mxCell id="m5FnCCsyvvvx2oeaLUDX-109" value="FK" style="shape=partialRectangle;connectable=0;fillColor=none;top=0;left=0;bottom=0;right=0;fontStyle=1;overflow=hidden;html=1;whiteSpace=wrap;" parent="m5FnCCsyvvvx2oeaLUDX-108" vertex="1">
                    <mxGeometry width="60" height="30" as="geometry">
                        <mxRectangle width="60" height="30" as="alternateBounds"/>
                    </mxGeometry>
                </mxCell>
                <mxCell id="m5FnCCsyvvvx2oeaLUDX-110" value="id_curriculo" style="shape=partialRectangle;connectable=0;fillColor=none;top=0;left=0;bottom=0;right=0;align=left;spacingLeft=6;fontStyle=5;overflow=hidden;html=1;whiteSpace=wrap;" parent="m5FnCCsyvvvx2oeaLUDX-108" vertex="1">
                    <mxGeometry x="60" width="110" height="30" as="geometry">
                        <mxRectangle width="110" height="30" as="alternateBounds"/>
                    </mxGeometry>
                </mxCell>
                <mxCell id="m5FnCCsyvvvx2oeaLUDX-111" value="" style="shape=tableRow;horizontal=0;startSize=0;swimlaneHead=0;swimlaneBody=0;fillColor=none;collapsible=0;dropTarget=0;points=[[0,0.5],[1,0.5]];portConstraint=eastwest;top=0;left=0;right=0;bottom=0;html=1;" parent="m5FnCCsyvvvx2oeaLUDX-104" vertex="1">
                    <mxGeometry y="90" width="170" height="30" as="geometry"/>
                </mxCell>
                <mxCell id="m5FnCCsyvvvx2oeaLUDX-112" value="" style="shape=partialRectangle;connectable=0;fillColor=none;top=0;left=0;bottom=0;right=0;editable=1;overflow=hidden;html=1;whiteSpace=wrap;" parent="m5FnCCsyvvvx2oeaLUDX-111" vertex="1">
                    <mxGeometry width="60" height="30" as="geometry">
                        <mxRectangle width="60" height="30" as="alternateBounds"/>
                    </mxGeometry>
                </mxCell>
                <mxCell id="m5FnCCsyvvvx2oeaLUDX-113" value="titulo      " style="shape=partialRectangle;connectable=0;fillColor=none;top=0;left=0;bottom=0;right=0;align=left;spacingLeft=6;overflow=hidden;html=1;whiteSpace=wrap;" parent="m5FnCCsyvvvx2oeaLUDX-111" vertex="1">
                    <mxGeometry x="60" width="110" height="30" as="geometry">
                        <mxRectangle width="110" height="30" as="alternateBounds"/>
                    </mxGeometry>
                </mxCell>
                <mxCell id="m5FnCCsyvvvx2oeaLUDX-117" value="" style="shape=tableRow;horizontal=0;startSize=0;swimlaneHead=0;swimlaneBody=0;fillColor=none;collapsible=0;dropTarget=0;points=[[0,0.5],[1,0.5]];portConstraint=eastwest;top=0;left=0;right=0;bottom=0;html=1;" parent="m5FnCCsyvvvx2oeaLUDX-104" vertex="1">
                    <mxGeometry y="120" width="170" height="30" as="geometry"/>
                </mxCell>
                <mxCell id="m5FnCCsyvvvx2oeaLUDX-118" value="" style="shape=partialRectangle;connectable=0;fillColor=none;top=0;left=0;bottom=0;right=0;editable=1;overflow=hidden;html=1;whiteSpace=wrap;" parent="m5FnCCsyvvvx2oeaLUDX-117" vertex="1">
                    <mxGeometry width="60" height="30" as="geometry">
                        <mxRectangle width="60" height="30" as="alternateBounds"/>
                    </mxGeometry>
                </mxCell>
                <mxCell id="m5FnCCsyvvvx2oeaLUDX-119" value="instituicao " style="shape=partialRectangle;connectable=0;fillColor=none;top=0;left=0;bottom=0;right=0;align=left;spacingLeft=6;overflow=hidden;html=1;whiteSpace=wrap;" parent="m5FnCCsyvvvx2oeaLUDX-117" vertex="1">
                    <mxGeometry x="60" width="110" height="30" as="geometry">
                        <mxRectangle width="110" height="30" as="alternateBounds"/>
                    </mxGeometry>
                </mxCell>
                <mxCell id="m5FnCCsyvvvx2oeaLUDX-120" value="" style="shape=tableRow;horizontal=0;startSize=0;swimlaneHead=0;swimlaneBody=0;fillColor=none;collapsible=0;dropTarget=0;points=[[0,0.5],[1,0.5]];portConstraint=eastwest;top=0;left=0;right=0;bottom=0;html=1;" parent="m5FnCCsyvvvx2oeaLUDX-104" vertex="1">
                    <mxGeometry y="150" width="170" height="30" as="geometry"/>
                </mxCell>
                <mxCell id="m5FnCCsyvvvx2oeaLUDX-121" value="" style="shape=partialRectangle;connectable=0;fillColor=none;top=0;left=0;bottom=0;right=0;editable=1;overflow=hidden;html=1;whiteSpace=wrap;" parent="m5FnCCsyvvvx2oeaLUDX-120" vertex="1">
                    <mxGeometry width="60" height="30" as="geometry">
                        <mxRectangle width="60" height="30" as="alternateBounds"/>
                    </mxGeometry>
                </mxCell>
                <mxCell id="m5FnCCsyvvvx2oeaLUDX-122" value="local&lt;span style=&quot;color: rgb(255, 255, 255); font-family: &amp;quot;Söhne Mono&amp;quot;, Monaco, &amp;quot;Andale Mono&amp;quot;, &amp;quot;Ubuntu Mono&amp;quot;, monospace; font-size: 14px; background-color: rgb(0, 0, 0);&quot;&gt;       &lt;/span&gt;" style="shape=partialRectangle;connectable=0;fillColor=none;top=0;left=0;bottom=0;right=0;align=left;spacingLeft=6;overflow=hidden;html=1;whiteSpace=wrap;" parent="m5FnCCsyvvvx2oeaLUDX-120" vertex="1">
                    <mxGeometry x="60" width="110" height="30" as="geometry">
                        <mxRectangle width="110" height="30" as="alternateBounds"/>
                    </mxGeometry>
                </mxCell>
                <mxCell id="m5FnCCsyvvvx2oeaLUDX-123" value="" style="shape=tableRow;horizontal=0;startSize=0;swimlaneHead=0;swimlaneBody=0;fillColor=none;collapsible=0;dropTarget=0;points=[[0,0.5],[1,0.5]];portConstraint=eastwest;top=0;left=0;right=0;bottom=0;html=1;" parent="m5FnCCsyvvvx2oeaLUDX-104" vertex="1">
                    <mxGeometry y="180" width="170" height="30" as="geometry"/>
                </mxCell>
                <mxCell id="m5FnCCsyvvvx2oeaLUDX-124" value="" style="shape=partialRectangle;connectable=0;fillColor=none;top=0;left=0;bottom=0;right=0;editable=1;overflow=hidden;html=1;whiteSpace=wrap;" parent="m5FnCCsyvvvx2oeaLUDX-123" vertex="1">
                    <mxGeometry width="60" height="30" as="geometry">
                        <mxRectangle width="60" height="30" as="alternateBounds"/>
                    </mxGeometry>
                </mxCell>
                <mxCell id="m5FnCCsyvvvx2oeaLUDX-125" value="data        " style="shape=partialRectangle;connectable=0;fillColor=none;top=0;left=0;bottom=0;right=0;align=left;spacingLeft=6;overflow=hidden;html=1;whiteSpace=wrap;" parent="m5FnCCsyvvvx2oeaLUDX-123" vertex="1">
                    <mxGeometry x="60" width="110" height="30" as="geometry">
                        <mxRectangle width="110" height="30" as="alternateBounds"/>
                    </mxGeometry>
                </mxCell>
                <mxCell id="m5FnCCsyvvvx2oeaLUDX-126" value="" style="edgeStyle=entityRelationEdgeStyle;fontSize=12;html=1;endArrow=ERmandOne;startArrow=ERmandOne;rounded=0;" parent="1" source="m5FnCCsyvvvx2oeaLUDX-5" target="m5FnCCsyvvvx2oeaLUDX-21" edge="1">
                    <mxGeometry width="100" height="100" relative="1" as="geometry">
                        <mxPoint x="640" y="310" as="sourcePoint"/>
                        <mxPoint x="740" y="210" as="targetPoint"/>
                    </mxGeometry>
                </mxCell>
                <mxCell id="m5FnCCsyvvvx2oeaLUDX-127" value="" style="edgeStyle=entityRelationEdgeStyle;fontSize=12;html=1;endArrow=ERoneToMany;rounded=0;exitX=1;exitY=0.5;exitDx=0;exitDy=0;" parent="1" source="m5FnCCsyvvvx2oeaLUDX-27" target="m5FnCCsyvvvx2oeaLUDX-42" edge="1">
                    <mxGeometry width="100" height="100" relative="1" as="geometry">
                        <mxPoint x="640" y="310" as="sourcePoint"/>
                        <mxPoint x="740" y="210" as="targetPoint"/>
                    </mxGeometry>
                </mxCell>
                <mxCell id="m5FnCCsyvvvx2oeaLUDX-132" value="" style="edgeStyle=entityRelationEdgeStyle;fontSize=12;html=1;endArrow=ERoneToMany;rounded=1;" parent="1" source="m5FnCCsyvvvx2oeaLUDX-17" target="m5FnCCsyvvvx2oeaLUDX-61" edge="1">
                    <mxGeometry width="100" height="100" relative="1" as="geometry">
                        <mxPoint x="700" y="65" as="sourcePoint"/>
                        <mxPoint x="704" y="435" as="targetPoint"/>
                        <Array as="points">
                            <mxPoint x="760" y="160"/>
                        </Array>
                    </mxGeometry>
                </mxCell>
                <mxCell id="m5FnCCsyvvvx2oeaLUDX-136" value="" style="edgeStyle=entityRelationEdgeStyle;fontSize=12;html=1;endArrow=ERoneToMany;rounded=0;" parent="1" source="m5FnCCsyvvvx2oeaLUDX-33" target="m5FnCCsyvvvx2oeaLUDX-105" edge="1">
                    <mxGeometry width="100" height="100" relative="1" as="geometry">
                        <mxPoint x="290" y="430" as="sourcePoint"/>
                        <mxPoint x="390" y="330" as="targetPoint"/>
                    </mxGeometry>
                </mxCell>
                <mxCell id="10" value="" style="edgeStyle=entityRelationEdgeStyle;fontSize=12;html=1;endArrow=ERoneToMany;rounded=0;exitX=0;exitY=-0.078;exitDx=0;exitDy=0;exitPerimeter=0;" edge="1" parent="1" source="m5FnCCsyvvvx2oeaLUDX-18" target="m5FnCCsyvvvx2oeaLUDX-88">
                    <mxGeometry width="100" height="100" relative="1" as="geometry">
                        <mxPoint x="209.9980000000001" y="182.65999999999985" as="sourcePoint"/>
                        <mxPoint x="331.79" y="-70.00000000000023" as="targetPoint"/>
                        <Array as="points">
                            <mxPoint x="391.79" y="145"/>
                        </Array>
                    </mxGeometry>
                </mxCell>
            </root>
        </mxGraphModel>
    </diagram>
</mxfile>